<svg width="30" height="30" viewBox="0 0 30 30" fill="none" xmlns="http://www.w3.org/2000/svg">
<path d="M25.1514 24.0536C25.483 24.0536 25.7518 23.7314 25.7518 23.3338C25.7518 22.9359 25.483 22.6133 25.1514 22.6133H22.6053C22.2737 22.6133 22.0049 22.9359 22.0049 23.3338C22.0049 23.7314 22.2737 24.0536 22.6053 24.0536H25.1514Z" fill="#A82700"/>
<path d="M25.5382 25.6896V28.8459H24.868V24.793H22.8643C22.857 24.8376 22.853 24.8842 22.853 24.9312V25.7183C21.6568 25.8716 20.9355 26.5464 20.9355 27.5557V29.2789C20.9355 29.676 21.2041 29.9986 21.5356 29.9986H22.6957H22.9376H24.8013H26.1768H26.2037C26.5352 29.9986 26.8041 29.676 26.8041 29.2789V27.1124C26.8038 26.6591 26.6142 25.9652 25.5382 25.6896Z" fill="#A82700"/>
<path d="M7.23102 22.6712H10.8077L10.3991 21.2305H6.81348L7.23102 22.6712Z" fill="#A82700"/>
<path d="M11.4637 18.4023H5.99316L6.41071 19.8431H11.8723L11.4637 18.4023Z" fill="#A82700"/>
<path d="M30.0004 0.382377C29.9988 0.248541 29.94 0.125459 29.8444 0.0565495C29.7498 -0.0135553 29.6317 -0.0183352 29.5328 0.0414132C29.3482 0.152147 25.5233 2.52814 18.6288 11.9939C18.3749 12.3321 18.1166 12.6798 17.8524 13.0395C14.5307 17.5632 12.0217 21.4767 11.9972 21.5162C11.7954 21.8316 11.8448 22.2837 12.1077 22.5259C12.1449 22.5602 12.1847 22.5885 12.2259 22.6104C12.4741 22.7458 12.7758 22.6637 12.9491 22.3933C12.965 22.3682 13.99 20.7693 15.5901 18.4455L19.272 18.6024C19.6029 18.6168 19.8814 18.3057 19.8934 17.9086C19.905 17.511 19.6458 17.1772 19.3145 17.1633L16.5626 17.0454C16.7425 16.7893 16.9274 16.5272 17.1166 16.2603L21.3345 16.4073C21.4859 16.2436 21.6386 16.0568 21.7912 15.8425C24.035 12.6997 25.9737 9.75172 27.2588 7.79715C30.0074 3.61596 30.0021 0.512231 30.0004 0.382377Z" fill="#A82700"/>
<path d="M19.2427 25.9864H16.3355C16.198 25.5299 15.5674 23.4351 14.9398 21.3467C14.562 21.912 14.265 22.3641 14.0625 22.6736C14.4678 24.0223 14.8462 25.2798 15.0593 25.9864H9.71481C9.38323 25.9864 9.11471 26.3094 9.11471 26.707C9.11471 26.7329 9.11571 26.7587 9.11837 26.7838C9.11604 26.8089 9.11471 26.8352 9.11471 26.8615C9.11471 27.0328 9.08252 28.5345 7.97161 28.5345C7.6231 28.5345 7.46279 28.1764 7.09337 26.9456C7.02766 26.7149 4.33851 17.2568 4.13139 16.5051L4.12542 16.4836C4.07431 16.2976 3.99631 16.0164 3.87018 15.7165C6.33529 15.7101 10.7305 15.6993 11.0926 15.6985C11.5194 15.6993 12.0037 15.6966 12.4106 17.1512C12.4428 17.2663 12.5772 17.72 12.7711 18.3673C13.0382 17.9702 13.335 17.5332 13.6566 17.0636C13.6012 16.8756 13.5627 16.7453 13.5481 16.6928C12.9453 14.539 11.924 14.2578 11.0992 14.2578C11.0962 14.2578 11.0929 14.2578 11.0899 14.2578C10.5844 14.2594 2.21726 14.2805 2.21726 14.2805V14.2905C2.15785 14.2845 2.09711 14.2805 2.03371 14.2805C1.54082 14.2805 1.10436 14.5052 0.771454 14.9322C-0.0951677 16.0423 -0.00422387 18.2151 0.00905259 18.4593C0.0296311 18.8381 0.291509 19.1325 0.607821 19.1325L3.60531 19.1309C4.45534 22.1283 5.87692 27.128 5.95857 27.416C5.9589 27.4172 5.95956 27.4188 5.9599 27.4204C5.96056 27.4227 5.96122 27.4247 5.96155 27.4271C6.31969 28.6217 6.72528 29.9752 7.97062 29.9752C8.01642 29.9752 8.06056 29.9724 8.10471 29.97C8.12661 29.9732 8.14885 29.9752 8.17109 29.9752H17.4985C18.454 29.9752 19.1916 29.3964 19.5736 28.3461C19.8345 27.6303 19.8418 26.9376 19.8418 26.8611C19.8418 26.8348 19.8404 26.8085 19.8384 26.7834C19.8404 26.7583 19.8418 26.7325 19.8418 26.7066C19.8424 26.3094 19.5736 25.9864 19.2427 25.9864ZM1.21157 17.6921C1.24509 17.0624 1.36259 16.2825 1.6477 15.9176C1.75491 15.7798 1.87074 15.7212 2.03438 15.7212C2.55581 15.7212 2.76392 16.1303 2.9863 16.9365L2.99227 16.9584C3.02049 17.0612 3.09351 17.3201 3.19839 17.6917L1.21157 17.6921ZM18.4746 27.7697C18.2821 28.2987 17.9814 28.5349 17.4995 28.5349H9.97735C10.1343 28.1692 10.2283 27.78 10.2754 27.4275H18.5719C18.5483 27.5371 18.5171 27.6542 18.4746 27.7697Z" fill="#A82700"/>
</svg>
