<svg width="29" height="24" viewBox="0 0 29 24" fill="none" xmlns="http://www.w3.org/2000/svg">
<path d="M24.2167 19.3898C24.5251 19.3898 24.7752 19.14 24.7752 18.8319C24.7752 18.5235 24.5251 18.2734 24.2167 18.2734H21.8485C21.5401 18.2734 21.29 18.5235 21.29 18.8319C21.29 19.14 21.5401 19.3898 21.8485 19.3898H24.2167Z" fill="#A82700"/>
<path d="M24.576 20.6598V23.1061H23.9526V19.9648H22.0889C22.0821 19.9994 22.0784 20.0355 22.0784 20.072V20.682C20.9658 20.8009 20.2949 21.3238 20.2949 22.1061V23.4417C20.2949 23.7495 20.5447 23.9995 20.8531 23.9995H21.9321H22.1571H23.8906H25.1699H25.1949C25.5033 23.9995 25.7534 23.7495 25.7534 23.4417V21.7625C25.7531 21.4112 25.5768 20.8734 24.576 20.6598Z" fill="#A82700"/>
<path d="M7.54755 18.3237H10.8743L10.4943 17.207H7.15918L7.54755 18.3237Z" fill="#A82700"/>
<path d="M11.4848 15.0117H6.39648L6.78486 16.1284H11.8649L11.4848 15.0117Z" fill="#A82700"/>
<path d="M28.726 1.04636C28.7245 0.942633 28.6698 0.847238 28.5809 0.793829C28.4929 0.739494 28.383 0.735789 28.291 0.782097C28.1194 0.867922 24.5617 2.70945 18.1489 10.0459C17.9128 10.308 17.6726 10.5775 17.4268 10.8563C14.3372 14.3625 12.0035 17.3956 11.9807 17.4262C11.793 17.6707 11.839 18.0211 12.0835 18.2088C12.1181 18.2354 12.1551 18.2573 12.1934 18.2743C12.4243 18.3792 12.705 18.3156 12.8661 18.106C12.8809 18.0866 13.8342 16.8474 15.3226 15.0463L18.7472 15.1679C19.055 15.179 19.314 14.9379 19.3252 14.6301C19.336 14.322 19.0948 14.0633 18.7867 14.0525L16.2271 13.9611C16.3945 13.7626 16.5664 13.5595 16.7424 13.3526L20.6656 13.4665C20.8064 13.3397 20.9484 13.1949 21.0904 13.0288C23.1774 10.593 24.9806 8.30811 26.176 6.79322C28.7325 3.55257 28.7276 1.14701 28.726 1.04636Z" fill="#A82700"/>
<path d="M18.7204 20.8911H16.0163C15.8885 20.5373 15.3019 18.9137 14.7182 17.2951C14.3668 17.7332 14.0905 18.0836 13.9022 18.3234C14.2792 19.3688 14.6311 20.3434 14.8293 20.8911H9.85828C9.54987 20.8911 9.30011 21.1414 9.30011 21.4495C9.30011 21.4696 9.30104 21.4897 9.30351 21.5091C9.30135 21.5286 9.30011 21.549 9.30011 21.5693C9.30011 21.7021 9.27017 22.866 8.23688 22.866C7.91273 22.866 7.76361 22.5884 7.42001 21.6345C7.35888 21.4557 4.85763 14.1251 4.66499 13.5426L4.65943 13.5259C4.61189 13.3817 4.53934 13.1638 4.42203 12.9313C6.71489 12.9264 10.803 12.918 11.1398 12.9174C11.5368 12.918 11.9872 12.9159 12.3657 14.0433C12.3956 14.1326 12.5207 14.4842 12.701 14.9859C12.9495 14.6781 13.2255 14.3394 13.5246 13.9754C13.4731 13.8297 13.4373 13.7287 13.4237 13.688C12.8631 12.0187 11.9131 11.8008 11.146 11.8008C11.1432 11.8008 11.1401 11.8008 11.1373 11.8008C10.6671 11.802 2.8846 11.8184 2.8846 11.8184V11.8261C2.82934 11.8215 2.77284 11.8184 2.71388 11.8184C2.25543 11.8184 1.84946 11.9925 1.53982 12.3234C0.733748 13.1839 0.818337 14.8679 0.830686 15.0572C0.849826 15.3508 1.09341 15.5789 1.38762 15.5789L4.17567 15.5777C4.9663 17.9008 6.28855 21.7759 6.36449 21.9991C6.3648 22 6.36542 22.0012 6.36573 22.0025C6.36635 22.0043 6.36696 22.0059 6.36727 22.0077C6.70038 22.9336 7.07764 23.9826 8.23596 23.9826C8.27856 23.9826 8.31962 23.9804 8.36068 23.9786C8.38105 23.9811 8.40174 23.9826 8.42242 23.9826H17.0981C17.9869 23.9826 18.6729 23.534 19.0282 22.7199C19.2708 22.1652 19.2776 21.6283 19.2776 21.569C19.2776 21.5486 19.2764 21.5283 19.2746 21.5088C19.2764 21.4894 19.2776 21.4693 19.2776 21.4492C19.2783 21.1414 19.0282 20.8911 18.7204 20.8911ZM1.94918 14.4626C1.98036 13.9745 2.08965 13.37 2.35484 13.0872C2.45455 12.9804 2.5623 12.935 2.7145 12.935C3.1995 12.935 3.39306 13.2521 3.59991 13.8769L3.60546 13.8939C3.6317 13.9736 3.69962 14.1742 3.79718 14.4623L1.94918 14.4626ZM18.006 22.2732C17.827 22.6832 17.5473 22.8663 17.099 22.8663H10.1025C10.2485 22.5829 10.3359 22.2812 10.3797 22.008H18.0965C18.0746 22.0929 18.0455 22.1837 18.006 22.2732Z" fill="#A82700"/>
</svg>
